<svg width="128" height="34" viewBox="0 0 128 34" fill="none" xmlns="http://www.w3.org/2000/svg">
<path fill-rule="evenodd" clip-rule="evenodd" d="M24.8917 13.5132C25.0001 15.3302 25.6049 16.8544 25.6049 16.8544C25.6049 16.8544 24.3926 15.5852 23.8774 13.4969C18.9523 -6.51252 -0.582526 -0.158211 6.78066 9.90345C7.86005 11.3761 10.5938 12.0812 10.5938 12.0812C10.5938 12.0812 7.7353 12.2277 5.38938 10.3509C-1.63751 11.3869 -0.897123 17.1907 2.53903 19.4661C3.80284 20.3014 5.43278 20.4587 6.8349 19.8865C13.0862 17.3426 19.4025 18.8234 22.9417 22.1971C22.9417 22.1971 14.9141 17.904 6.55014 22.0019C5.9779 22.2812 5.64703 22.8887 5.67144 23.5233C5.79077 26.6205 6.28707 30.6641 6.96779 32.1666C6.96779 32.1666 9.72051 29.7583 14.1927 28.5541C16.4654 27.9412 19.2696 28.264 21.4826 28.7277C17.976 31.7001 13.0129 32.2371 10.564 32.1883C13.7316 32.8663 19.7849 31.3069 22.7736 29.026C23.1099 29.1128 23.419 29.1969 23.6984 29.2756C19.0716 33.5551 12.0095 33.509 8.79571 33.048C12.777 34.423 21.2575 33.1185 24.5798 30.3631C24.973 30.0376 25.1493 29.5223 25.0598 29.0179C24.8645 27.9087 24.5798 25.7743 24.9459 24.2501C34.3946 31.136 34.3241 13.8278 24.8944 13.5078L24.8917 13.5132Z" fill="url(#paint0_radial_4100_3844)"/>
<path d="M51.0118 24.2343C46.7745 24.2343 43.6112 21.2858 43.6112 17.1657C43.6112 13.0455 46.7745 10.097 51.0313 10.097C53.394 10.097 55.3662 10.9562 56.655 12.5183L54.6242 14.3929C53.7064 13.3384 52.5544 12.7917 51.1875 12.7917C48.6295 12.7917 46.8135 14.5881 46.8135 17.1657C46.8135 19.7432 48.6295 21.5396 51.1875 21.5396C52.5544 21.5396 53.7064 20.9929 54.6242 19.9189L56.655 21.7935C55.3662 23.3751 53.394 24.2343 51.0118 24.2343ZM64.5711 13.3384C67.051 13.3384 68.9255 14.7834 68.9255 17.9858V24H65.8793V18.4544C65.8793 16.7556 65.0983 15.9745 63.7509 15.9745C62.2864 15.9745 61.232 16.8728 61.232 18.8059V24H58.1858V9.5112H61.232V14.5881C62.0521 13.768 63.2237 13.3384 64.5711 13.3384ZM81.7011 18.7864C81.7011 19.0207 81.6621 19.3526 81.6426 19.6065H73.6952C73.9881 20.9148 75.1011 21.7154 76.7023 21.7154C77.8153 21.7154 78.6159 21.3834 79.3384 20.7L80.9591 22.4574C79.9828 23.5704 78.5183 24.1562 76.6242 24.1562C72.9922 24.1562 70.6295 21.8716 70.6295 18.7473C70.6295 15.6035 73.0313 13.3384 76.2337 13.3384C79.3189 13.3384 81.7011 15.4083 81.7011 18.7864ZM76.2532 15.6426C74.8668 15.6426 73.8709 16.4822 73.6562 17.8296H78.8307C78.6159 16.5018 77.6201 15.6426 76.2532 15.6426ZM86.6777 13.2799V13.729H89.3724V16.0722H86.7558V24H83.7097V16.0722H82.0889V13.729H83.7097V13.2603C83.7097 10.8976 85.1546 9.35499 87.7712 9.35499C88.6304 9.35499 89.5286 9.53073 90.0949 9.92126L89.2943 12.1278C88.9623 11.8935 88.5327 11.7568 88.0641 11.7568C87.1659 11.7568 86.6777 12.2449 86.6777 13.2799ZM91.4608 24.1562C90.4064 24.1562 89.5667 23.3556 89.5667 22.2426C89.5667 21.1101 90.4064 20.368 91.4608 20.368C92.5153 20.368 93.3549 21.1101 93.3549 22.2426C93.3549 23.3556 92.5153 24.1562 91.4608 24.1562Z" fill="white"/>
<path d="M98.3678 13.2799V13.729H101.062V16.0722H98.4459V24H95.3997V16.0722H93.779V13.729H95.3997V13.2603C95.3997 10.8976 96.8447 9.35499 99.4613 9.35499C100.32 9.35499 101.219 9.53073 101.785 9.92126L100.984 12.1278C100.652 11.8935 100.223 11.7568 99.7542 11.7568C98.856 11.7568 98.3678 12.2449 98.3678 13.2799ZM109.727 13.4946H112.773V24H109.883V22.7503C109.082 23.668 107.911 24.1562 106.622 24.1562C103.986 24.1562 102.131 22.6722 102.131 19.4308V13.4946H105.177V18.9816C105.177 20.739 105.958 21.5201 107.306 21.5201C108.711 21.5201 109.727 20.6219 109.727 18.6887V13.4946ZM121.59 13.3384C124.07 13.3384 125.944 14.7834 125.944 17.9858V24H122.898V18.4544C122.898 16.7556 122.117 15.9745 120.77 15.9745C119.305 15.9745 118.251 16.8728 118.251 18.8059V24H115.205V13.4946H118.114V14.7248C118.934 13.8266 120.164 13.3384 121.59 13.3384Z" fill="white"/>
<defs>
<radialGradient id="paint0_radial_4100_3844" cx="0" cy="0" r="1" gradientUnits="userSpaceOnUse" gradientTransform="translate(31.9996 0.400022) rotate(133.513) scale(45.7791 45.7227)">
<stop offset="0.475" stop-color="#FECA18"/>
<stop offset="1" stop-color="#E58A02"/>
</radialGradient>
</defs>
</svg>
