<svg width="216" height="57" viewBox="0 0 216 57" fill="none" xmlns="http://www.w3.org/2000/svg">
<path fill-rule="evenodd" clip-rule="evenodd" d="M42.7201 22.5053C42.9063 25.6239 43.9442 28.2397 43.9442 28.2397C43.9442 28.2397 41.8637 26.0614 40.9793 22.4774C32.5267 -11.8636 -0.999756 -0.958067 11.6373 16.3102C13.4897 18.8376 18.1815 20.0478 18.1815 20.0478C18.1815 20.0478 13.2756 20.2991 9.24949 17.0782C-2.81036 18.8562 -1.53968 28.8169 4.35759 32.722C6.5266 34.1556 9.32396 34.4256 11.7303 33.4435C22.459 29.0775 33.2994 31.6189 39.3735 37.4091C39.3735 37.4091 25.5961 30.041 11.2416 37.074C10.2595 37.5534 9.69167 38.596 9.73356 39.6852C9.93835 45.0006 10.7901 51.9405 11.9584 54.5191C11.9584 54.5191 16.6827 50.3859 24.358 48.3193C28.2585 47.2674 33.0713 47.8212 36.8694 48.6172C30.8511 53.7185 22.3333 54.6401 18.1303 54.5563C23.5668 55.72 33.9557 53.0436 39.0849 49.1292C39.6621 49.2781 40.1927 49.4224 40.6721 49.5574C32.7315 56.9022 20.6112 56.8231 15.0956 56.0318C21.9284 58.3917 36.4831 56.1528 42.1848 51.4238C42.8597 50.8653 43.1623 49.9809 43.0087 49.1152C42.6736 47.2115 42.1848 43.5484 42.8132 40.9326C59.0295 52.7504 58.9085 23.0453 42.7248 22.496L42.7201 22.5053Z" fill="black"/>
<path d="M84.9274 40.8918C77.6551 40.8918 72.2261 35.8314 72.2261 28.7602C72.2261 21.6891 77.6551 16.6287 84.9609 16.6287C89.0159 16.6287 92.4006 18.1033 94.6125 20.7843L91.1272 24.0015C89.5521 22.1918 87.5748 21.2534 85.229 21.2534C80.8388 21.2534 77.7222 24.3366 77.7222 28.7602C77.7222 33.1839 80.8388 36.267 85.229 36.267C87.5748 36.267 89.5521 35.3287 91.1272 33.4855L94.6125 36.7027C92.4006 39.4172 89.0159 40.8918 84.9274 40.8918ZM108.198 22.1918C112.454 22.1918 115.672 24.6717 115.672 30.1678V40.4896H110.444V30.9721C110.444 28.0565 109.103 26.716 106.791 26.716C104.277 26.716 102.468 28.2576 102.468 31.5753V40.4896H97.2398V15.6233H102.468V24.3366C103.875 22.9291 105.886 22.1918 108.198 22.1918ZM137.598 31.5418C137.598 31.9439 137.531 32.5136 137.497 32.9493H123.858C124.36 35.1946 126.271 36.5687 129.019 36.5687C130.929 36.5687 132.303 35.9989 133.543 34.826L136.324 37.8421C134.649 39.7523 132.135 40.7577 128.885 40.7577C122.651 40.7577 118.596 36.8368 118.596 31.4748C118.596 26.0792 122.718 22.1918 128.214 22.1918C133.509 22.1918 137.598 25.7441 137.598 31.5418ZM128.248 26.1463C125.868 26.1463 124.159 27.5873 123.791 29.8997H132.671C132.303 27.6208 130.594 26.1463 128.248 26.1463ZM146.139 22.0913V22.862H150.763V26.8835H146.273V40.4896H141.045V26.8835H138.263V22.862H141.045V22.0577C141.045 18.0027 143.525 15.3552 148.015 15.3552C149.49 15.3552 151.032 15.6569 152.003 16.3271L150.629 20.114C150.06 19.7119 149.322 19.4773 148.518 19.4773C146.977 19.4773 146.139 20.3151 146.139 22.0913ZM154.348 40.7577C152.538 40.7577 151.097 39.3837 151.097 37.4735C151.097 35.5298 152.538 34.2563 154.348 34.2563C156.157 34.2563 157.598 35.5298 157.598 37.4735C157.598 39.3837 156.157 40.7577 154.348 40.7577ZM166.202 22.0913V22.862H170.826V26.8835H166.336V40.4896H161.108V26.8835H158.326V22.862H161.108V22.0577C161.108 18.0027 163.588 15.3552 168.078 15.3552C169.553 15.3552 171.095 15.6569 172.066 16.3271L170.692 20.114C170.123 19.7119 169.385 19.4773 168.581 19.4773C167.04 19.4773 166.202 20.3151 166.202 22.0913ZM185.697 22.4599H190.925V40.4896H185.965V38.3448C184.591 39.9199 182.58 40.7577 180.368 40.7577C175.844 40.7577 172.66 38.2108 172.66 32.6477V22.4599H177.888V31.8769C177.888 34.893 179.229 36.2335 181.541 36.2335C183.954 36.2335 185.697 34.692 185.697 31.3742V22.4599ZM206.056 22.1918C210.312 22.1918 213.53 24.6717 213.53 30.1678V40.4896H208.302V30.9721C208.302 28.0565 206.961 26.716 204.649 26.716C202.135 26.716 200.326 28.2576 200.326 31.5753V40.4896H195.098V22.4599H200.091V24.5712C201.499 23.0296 203.61 22.1918 206.056 22.1918Z" fill="black"/>
</svg>
