<svg width="186" height="157" viewBox="0 0 186 157" fill="none" xmlns="http://www.w3.org/2000/svg">
<path d="M41.3666 148.947L40.0931 144.807C39.7949 143.838 39.6748 142.92 39.7327 142.053C39.7907 141.186 40.0092 140.395 40.3882 139.679C40.7559 138.967 41.2722 138.352 41.9372 137.836C42.5988 137.308 43.38 136.905 44.281 136.628C45.1934 136.347 46.0716 136.239 46.9156 136.304C47.756 136.358 48.5284 136.576 49.2329 136.958C49.9373 137.341 50.5571 137.874 51.0922 138.559C51.6273 139.243 52.0439 140.07 52.3422 141.039L53.6157 145.179L41.3666 148.947ZM50.184 141.816C49.977 141.143 49.7033 140.578 49.3629 140.121C49.0112 139.667 48.6116 139.322 48.1642 139.085C47.7168 138.848 47.2273 138.718 46.6956 138.694C46.1526 138.674 45.5845 138.755 44.9915 138.937C44.3984 139.12 43.8887 139.37 43.4623 139.689C43.0245 140.011 42.6871 140.395 42.4502 140.843C42.2133 141.29 42.0826 141.798 42.058 142.368C42.022 142.941 42.1074 143.564 42.3144 144.236L42.8459 145.964L50.7155 143.544L50.184 141.816Z" fill="#FECA18"/>
<path d="M46.8253 122.6C47.5782 122.932 48.2088 123.42 48.7172 124.065C49.2243 124.698 49.5274 125.507 49.6262 126.492C49.6929 127.157 49.6421 127.786 49.4737 128.378C49.2922 128.96 49.0145 129.48 48.6406 129.937C48.2668 130.394 47.8127 130.77 47.2785 131.063C46.7313 131.346 46.1192 131.521 45.4425 131.589C44.8132 131.652 44.2083 131.599 43.6276 131.429C43.0351 131.261 42.5108 130.996 42.0547 130.634C41.5868 130.273 41.2008 129.832 40.8967 129.311C40.5914 128.778 40.4054 128.179 40.3387 127.514C40.2684 126.813 40.3246 126.178 40.5073 125.608C40.6781 125.039 40.9528 124.55 41.3314 124.14C41.6982 123.732 42.151 123.405 42.69 123.159C43.229 122.913 43.825 122.757 44.478 122.691C44.5611 122.683 44.6323 122.676 44.6917 122.67C44.7641 122.675 44.83 122.674 44.8894 122.668C44.9499 122.674 45.0158 122.673 45.0871 122.666L45.7463 129.238C46.0977 129.155 46.3969 129.029 46.6438 128.86C46.8777 128.681 47.0729 128.475 47.2296 128.244C47.3731 128.001 47.4734 127.746 47.5303 127.476C47.5753 127.208 47.5842 126.937 47.5568 126.664C47.5032 126.13 47.3404 125.702 47.0684 125.382C46.7833 125.051 46.4466 124.803 46.0583 124.638L46.8253 122.6ZM43.6541 125.059C43.5009 125.086 43.3342 125.157 43.1537 125.271C42.9721 125.373 42.8071 125.521 42.6587 125.716C42.5092 125.899 42.3941 126.126 42.3134 126.398C42.2316 126.658 42.2085 126.967 42.2443 127.323C42.2943 127.821 42.4808 128.246 42.8039 128.598C43.127 128.949 43.5515 129.176 44.0775 129.279L43.6541 125.059Z" fill="#FECA18"/>
<path d="M40.1255 117.444L40.3163 115.251L41.3684 115.343L41.3808 115.2C41.0309 114.954 40.7448 114.594 40.5226 114.119C40.3004 113.645 40.2182 113.075 40.2762 112.409C40.3248 111.85 40.4897 111.331 40.7709 110.853C41.0412 110.361 41.401 109.944 41.8501 109.599C42.2884 109.242 42.8027 108.976 43.393 108.799C43.9832 108.623 44.6172 108.564 45.2947 108.623C45.9723 108.682 46.5866 108.85 47.1376 109.125C47.6885 109.401 48.155 109.753 48.5369 110.181C48.908 110.597 49.1902 111.07 49.3834 111.602C49.5659 112.121 49.6328 112.66 49.5841 113.219C49.5262 113.884 49.3468 114.432 49.046 114.861C48.7452 115.29 48.4012 115.595 48.0141 115.777L48.0017 115.92L49.2623 115.886L52.9177 116.204L52.7145 118.54L40.1255 117.444ZM47.3847 113.512C47.4116 113.203 47.3775 112.907 47.2824 112.623C47.1883 112.328 47.0436 112.063 46.8482 111.831C46.6529 111.598 46.4064 111.403 46.1087 111.245C45.811 111.088 45.4719 110.992 45.0915 110.959C44.7111 110.926 44.3607 110.962 44.0402 111.065C43.7198 111.169 43.4432 111.319 43.2106 111.514C42.9781 111.71 42.7899 111.945 42.6462 112.22C42.5035 112.483 42.4188 112.769 42.3919 113.078C42.365 113.387 42.3986 113.689 42.4926 113.985C42.5758 114.268 42.7151 114.526 42.9104 114.758C43.1058 114.991 43.3523 115.186 43.65 115.343C43.9477 115.501 44.2927 115.597 44.685 115.631C45.0773 115.665 45.4337 115.63 45.7541 115.527C46.0746 115.423 46.3511 115.273 46.5837 115.078C46.8163 114.882 47.0039 114.653 47.1466 114.39C47.2784 114.114 47.3578 113.822 47.3847 113.512Z" fill="#FECA18"/>
<path d="M50.6381 104.532L38.1738 101.552L38.7189 99.2719L51.1832 102.252L50.6381 104.532Z" fill="#FECA18"/>
<path d="M45.4968 90.5115C45.7482 89.8795 46.0885 89.347 46.5175 88.9141C46.9399 88.4658 47.4201 88.1303 47.9581 87.9077C48.4895 87.6696 49.0631 87.551 49.6791 87.5521C50.2995 87.5421 50.9257 87.6627 51.5577 87.9142C52.1897 88.1656 52.7277 88.508 53.1717 88.9415C53.6201 89.3638 53.9611 89.8462 54.1948 90.3887C54.4218 90.9156 54.5403 91.4893 54.5503 92.1097C54.5537 92.7146 54.4297 93.333 54.1783 93.965C53.9269 94.597 53.59 95.1372 53.1676 95.5856C52.7385 96.0185 52.2583 96.354 51.727 96.5921C51.189 96.8147 50.6098 96.931 49.9894 96.941C49.3734 96.94 48.7494 96.8137 48.1174 96.5623C47.4854 96.3109 46.9452 95.974 46.4968 95.5517C46.0528 95.1182 45.7173 94.638 45.4903 94.1111C45.2567 93.5686 45.1381 92.995 45.1348 92.39C45.1247 91.7696 45.2454 91.1434 45.4968 90.5115ZM52.1659 93.1645C52.2762 92.8873 52.3321 92.6014 52.3338 92.3067C52.3288 91.9964 52.2662 91.7019 52.146 91.4229C52.0258 91.1439 51.8436 90.8917 51.5995 90.6661C51.3597 90.4295 51.0569 90.2384 50.691 90.0928C50.3251 89.9473 49.9738 89.8781 49.637 89.8854C49.3046 89.8816 48.999 89.9398 48.72 90.06C48.441 90.1802 48.1987 90.3535 47.9931 90.5799C47.7808 90.7908 47.6195 91.0348 47.5092 91.312C47.3945 91.6003 47.3419 91.894 47.3513 92.1931C47.3497 92.4878 47.4089 92.7746 47.5291 93.0536C47.6493 93.3326 47.8293 93.5904 48.069 93.827C48.3132 94.0526 48.6182 94.2381 48.9841 94.3837C49.35 94.5292 49.6991 94.6039 50.0315 94.6077C50.3683 94.6004 50.6761 94.5367 50.9551 94.4165C51.2341 94.2963 51.4797 94.1308 51.692 93.9199C51.8933 93.7046 52.0512 93.4528 52.1659 93.1645Z" fill="#FECA18"/>
<path d="M58.7305 83.1415L49.7071 81.8215L51.1271 79.564L56.8085 80.5158L56.8753 80.4098L53.5096 75.7764L54.9011 73.5644L62.6716 84.944L61.3278 87.0802L58.7305 83.1415Z" fill="#FECA18"/>
<path d="M71.1779 67.8588L62.8713 64.0952L64.8602 62.3184L70.0569 64.8041L70.1504 64.7206L68.1971 59.3372L70.1459 57.5962L74.467 70.6807L72.5849 72.3621L71.1779 67.8588Z" fill="#FECA18"/>
<path d="M77.8669 52.0468C78.448 51.6935 79.0402 51.4731 79.6434 51.3857C80.2506 51.2819 80.836 51.303 81.3996 51.4491C81.9672 51.5788 82.4967 51.8294 82.988 52.2011C83.4894 52.5665 83.9168 53.0398 84.2702 53.621C84.6235 54.2021 84.847 54.7994 84.9406 55.4128C85.0444 56.02 85.0264 56.6105 84.8865 57.1843C84.7506 57.7417 84.4999 58.2712 84.1345 58.7727C83.7731 59.2577 83.3018 59.6769 82.7206 60.0303C82.1394 60.3836 81.5453 60.6122 80.9381 60.716C80.3349 60.8035 79.7495 60.7823 79.1819 60.6526C78.6182 60.5065 78.0857 60.2508 77.5842 59.8853C77.0929 59.5137 76.6706 59.0373 76.3173 58.4561C75.964 57.875 75.7354 57.2808 75.6316 56.6736C75.5379 56.0602 75.5591 55.4748 75.695 54.9174C75.8349 54.3436 76.0855 53.8141 76.447 53.329C76.8124 52.8276 77.2857 52.4002 77.8669 52.0468ZM81.5955 58.1797C81.8504 58.0247 82.0672 57.8301 82.2459 57.5957C82.4286 57.345 82.556 57.0721 82.6279 56.777C82.6999 56.4819 82.7062 56.1708 82.647 55.8437C82.598 55.5104 82.4712 55.1755 82.2667 54.8391C82.0621 54.5026 81.8231 54.2359 81.5498 54.039C81.2867 53.8359 81.0076 53.6984 80.7125 53.6264C80.4173 53.5545 80.1195 53.547 79.8191 53.604C79.5226 53.6446 79.2469 53.7424 78.992 53.8974C78.7269 54.0586 78.5081 54.2614 78.3355 54.506C78.1568 54.7403 78.0315 55.005 77.9595 55.3001C77.8876 55.5952 77.8761 55.9094 77.9251 56.2427C77.9844 56.5698 78.1162 56.9016 78.3208 57.238C78.5254 57.5745 78.7592 57.8443 79.0224 58.0474C79.2957 58.2443 79.5799 58.3787 79.875 58.4507C80.1701 58.5226 80.4659 58.5383 80.7624 58.4977C81.0527 58.4469 81.3304 58.3409 81.5955 58.1797Z" fill="#FECA18"/>
<path d="M95.7118 52.2888L95.5778 52.3392C95.4762 52.849 95.2537 53.3087 94.9105 53.7181C94.563 54.1164 94.11 54.4205 93.5516 54.6304C92.5128 55.0208 91.6168 54.9942 90.8637 54.5506C90.1218 54.1028 89.5515 53.3484 89.1527 52.2873L87.2825 47.3112L89.4774 46.4863L91.2468 51.1943C91.4693 51.7863 91.7635 52.1792 92.1296 52.3731C92.5026 52.5516 92.9404 52.5464 93.4431 52.3575C93.7447 52.2442 93.9841 52.0841 94.1613 51.8772C94.3455 51.6551 94.4759 51.4085 94.5525 51.1375C94.6361 50.8511 94.6624 50.548 94.6314 50.2282C94.6074 49.8931 94.5325 49.5579 94.4065 49.2228L92.8953 45.2017L95.0902 44.3769L98.1756 52.5866L96.1148 53.3611L95.7118 52.2888Z" fill="#FECA18"/>
<path d="M101.216 42.7337L103.377 42.3133L103.609 43.508L103.75 43.4806C103.814 43.2493 103.917 43.0287 104.059 42.8188C104.2 42.6089 104.364 42.419 104.549 42.2492C104.747 42.077 104.962 41.9319 105.194 41.8137C105.438 41.6933 105.683 41.6092 105.929 41.5613C106.234 41.5021 106.497 41.4812 106.719 41.4988C106.953 41.514 107.155 41.5537 107.326 41.6178L107.118 43.8282C106.963 43.7852 106.795 43.7633 106.613 43.7623C106.439 43.7474 106.23 43.7638 105.984 43.8117C105.668 43.8732 105.393 43.9935 105.161 44.1725C104.926 44.3397 104.736 44.5529 104.592 44.8119C104.46 45.0686 104.371 45.3595 104.324 45.6846C104.288 45.9956 104.303 46.3268 104.372 46.6782L105.192 50.8948L102.891 51.3427L101.216 42.7337Z" fill="#FECA18"/>
<path d="M121.554 42.7488L120.017 42.6674L120.123 40.6655L121.66 40.747L121.802 38.0659L124.144 38.19L124.002 40.8711L126.147 40.9848L126.04 42.9866L123.896 42.8729L123.716 46.2689C123.705 46.4715 123.713 46.6631 123.739 46.8437C123.778 47.0131 123.854 47.1605 123.966 47.286C124.123 47.4855 124.356 47.5934 124.666 47.6099C124.869 47.6206 125.031 47.6112 125.152 47.5818C125.273 47.5405 125.39 47.4869 125.501 47.4211L126.053 49.5116C125.772 49.6282 125.469 49.7077 125.144 49.7502C124.831 49.8053 124.483 49.8227 124.102 49.8025C123.661 49.7791 123.265 49.6924 122.915 49.5424C122.577 49.3811 122.295 49.175 122.069 48.924C121.538 48.3581 121.298 47.5807 121.351 46.5917L121.554 42.7488Z" fill="#FECA18"/>
<path d="M135.997 42.2511C136.661 42.3971 137.241 42.6469 137.738 43.0004C138.249 43.3448 138.657 43.7645 138.964 44.2595C139.285 44.7454 139.494 45.2924 139.593 45.9004C139.703 46.5111 139.685 47.1485 139.539 47.8128C139.393 48.4771 139.142 49.0634 138.786 49.5715C138.441 50.0823 138.02 50.4967 137.523 50.815C137.039 51.1241 136.492 51.3337 135.882 51.4439C135.285 51.5449 134.655 51.5224 133.991 51.3763C133.326 51.2303 132.739 50.9851 132.228 50.6407C131.732 50.2872 131.323 49.8675 131.002 49.3816C130.696 48.8866 130.487 48.3338 130.377 47.7231C130.279 47.1151 130.303 46.4789 130.449 45.8146C130.595 45.1503 130.84 44.5628 131.184 44.052C131.54 43.5439 131.96 43.1352 132.443 42.8261C132.941 42.5079 133.488 42.2982 134.084 42.1972C134.695 42.0871 135.332 42.105 135.997 42.2511ZM134.456 49.2611C134.747 49.3251 135.038 49.3342 135.329 49.2882C135.635 49.2332 135.915 49.1238 136.171 48.9601C136.427 48.7965 136.647 48.576 136.83 48.2986C137.025 48.0237 137.164 47.694 137.249 47.3094C137.333 46.9248 137.345 46.567 137.283 46.2358C137.233 45.9071 137.127 45.6149 136.963 45.359C136.799 45.1031 136.589 44.892 136.332 44.7256C136.09 44.5501 135.823 44.4304 135.532 44.3663C135.229 44.2997 134.93 44.2952 134.637 44.3528C134.346 44.3988 134.072 44.5036 133.816 44.6673C133.56 44.8309 133.335 45.0502 133.14 45.325C132.957 45.6024 132.823 45.9334 132.739 46.318C132.654 46.7026 132.637 47.0592 132.687 47.3878C132.748 47.719 132.861 48.0125 133.025 48.2684C133.188 48.5243 133.391 48.74 133.634 48.9155C133.879 49.0793 134.153 49.1945 134.456 49.2611Z" fill="#FECA18"/>
<path d="M147.637 41.6344L149.801 42.5375L147.112 48.9795L147.211 49.0209L151.051 47.4425L153.727 48.5593L153.672 48.6914L149.445 50.3604L150.652 56.6243L150.597 56.7565L148.036 55.6879L147.305 51.2128L145.954 51.7545L144.865 54.3644L142.701 53.4613L147.637 41.6344Z" fill="#FECA18"/>
<path d="M161.765 61.1326C161.037 61.5161 160.262 61.7067 159.441 61.7046C158.63 61.7089 157.808 61.4436 156.974 60.9088C156.412 60.5479 155.951 60.1174 155.591 59.6173C155.248 59.1136 155.014 58.5732 154.888 57.9962C154.762 57.4191 154.75 56.8302 154.852 56.2293C154.97 55.6248 155.213 55.0363 155.581 54.4638C155.922 53.9316 156.34 53.4906 156.833 53.141C157.333 52.7814 157.867 52.5354 158.434 52.403C159.007 52.2605 159.593 52.2321 160.19 52.3176C160.797 52.4095 161.382 52.6359 161.945 52.9968C162.537 53.377 163 53.8157 163.333 54.313C163.673 54.8002 163.885 55.3195 163.971 55.8707C164.063 56.412 164.038 56.9701 163.896 57.5452C163.754 58.1204 163.506 58.6841 163.151 59.2365C163.106 59.3068 163.068 59.367 163.035 59.4172C162.987 59.4711 162.946 59.5231 162.914 59.5733C162.872 59.6171 162.831 59.6691 162.793 59.7293L157.234 56.1627C157.081 56.4897 156.994 56.8024 156.972 57.1007C156.967 57.3953 157.007 57.676 157.091 57.9426C157.192 58.2057 157.33 58.4432 157.506 58.6553C157.688 58.8573 157.895 59.0324 158.126 59.1806C158.578 59.4706 159.014 59.6086 159.434 59.5946C159.871 59.577 160.274 59.4673 160.645 59.2655L161.765 61.1326ZM161.808 57.1201C161.882 56.9831 161.93 56.8085 161.953 56.5963C161.986 56.3905 161.972 56.1689 161.912 55.9317C161.861 55.7009 161.755 55.4694 161.592 55.2372C161.439 55.0115 161.212 54.802 160.91 54.6087C160.489 54.338 160.04 54.2201 159.564 54.255C159.088 54.2898 158.646 54.4812 158.238 54.8293L161.808 57.1201Z" fill="#FECA18"/>
<path d="M170.81 61.471L170.914 61.5689C171.416 61.4346 171.923 61.4353 172.434 61.5709C172.953 61.6977 173.43 61.9652 173.865 62.3734C174.265 62.7489 174.557 63.1447 174.739 63.561C174.921 63.9772 174.993 64.397 174.956 64.8203C174.936 65.243 174.815 65.669 174.592 66.0983C174.386 66.5269 174.092 66.9458 173.708 67.3549L170.071 71.2324L168.361 69.6284L171.802 65.9598C172.234 65.4985 172.448 65.0611 172.444 64.6476C172.456 64.2336 172.266 63.8429 171.874 63.4756C171.639 63.2552 171.381 63.1115 171.101 63.0445C170.837 62.977 170.558 62.969 170.264 63.0207C169.987 63.0718 169.704 63.1821 169.414 63.3518C169.14 63.521 168.881 63.7361 168.637 63.9972L165.698 67.1305L163.988 65.5265L169.987 59.1294L171.593 60.6354L170.81 61.471Z" fill="#FECA18"/>
</svg>
