<svg width="32" height="34" viewBox="0 0 32 34" fill="none" xmlns="http://www.w3.org/2000/svg">
<path fill-rule="evenodd" clip-rule="evenodd" d="M24.8917 13.1132C25.0001 14.9302 25.6049 16.4544 25.6049 16.4544C25.6049 16.4544 24.3926 15.1852 23.8774 13.0969C18.9523 -6.91254 -0.582526 -0.558236 6.78066 9.50343C7.86005 10.9761 10.5938 11.6812 10.5938 11.6812C10.5938 11.6812 7.7353 11.8276 5.38938 9.95092C-1.63751 10.9869 -0.897123 16.7907 2.53903 19.0661C3.80284 19.9014 5.43278 20.0587 6.8349 19.4864C13.0862 16.9426 19.4025 18.4233 22.9417 21.7971C22.9417 21.7971 14.9141 17.5039 6.55014 21.6018C5.9779 21.8812 5.64703 22.4887 5.67144 23.1233C5.79077 26.2204 6.28707 30.2641 6.96779 31.7666C6.96779 31.7666 9.72051 29.3583 14.1927 28.1541C16.4654 27.5412 19.2696 27.8639 21.4826 28.3277C17.976 31.3001 13.0129 31.8371 10.564 31.7883C13.7316 32.4663 19.7849 30.9068 22.7736 28.626C23.1098 28.7128 23.419 28.7969 23.6984 28.8755C19.0716 33.1551 12.0095 33.109 8.79571 32.648C12.777 34.023 21.2575 32.7185 24.5798 29.9631C24.973 29.6376 25.1493 29.1223 25.0598 28.6179C24.8645 27.5087 24.5798 25.3743 24.9459 23.8501C34.3946 30.736 34.3241 13.4278 24.8944 13.1077L24.8917 13.1132Z" fill="url(#paint0_radial_66_1200)"/>
<defs>
<radialGradient id="paint0_radial_66_1200" cx="0" cy="0" r="1" gradientUnits="userSpaceOnUse" gradientTransform="translate(31.9996 -1.94919e-06) rotate(133.513) scale(45.7791 45.7227)">
<stop offset="0.475" stop-color="#FECA18"/>
<stop offset="1" stop-color="#E58A02"/>
</radialGradient>
</defs>
</svg>
