<svg width="40" height="40" viewBox="0 0 40 40" fill="none" xmlns="http://www.w3.org/2000/svg">
<circle cx="20" cy="20" r="20" fill="#1A1A1A"/>
<g clip-path="url(#clip0_35_1721)">
<path d="M18.3768 18.1986C16.0604 17.6688 15.1679 14.7075 15.1679 14.7075C13.5097 15.8226 9.65393 22.7392 14.6598 26.7204C19.3943 30.4857 27.0352 27.1637 26.1054 20.8394C25.5114 16.7997 23.2031 15.9953 20.7138 11.6923C18.1831 14.7075 18.3768 18.1986 18.3768 18.1986Z" stroke="#FECA18" stroke-width="1.38462" stroke-linecap="round" stroke-linejoin="round"/>
<path d="M19.4719 24.0151C20.52 23.7755 20.9985 22.1544 20.9985 22.1544C21.7488 22.6589 23.4933 25.7883 21.2284 27.5896C19.0863 29.2933 15.629 27.7902 16.0498 24.9288C16.3185 23.101 17.363 22.737 18.4892 20.7902C19.6342 22.1544 19.4719 24.0151 19.4719 24.0151Z" stroke="#FECA18" stroke-width="1.38462" stroke-linecap="round" stroke-linejoin="round"/>
</g>
<defs>
<clipPath id="clip0_35_1721">
<rect width="24" height="24" fill="white" transform="translate(8 8)"/>
</clipPath>
</defs>
</svg>
