<svg id="Layer_1" data-name="Layer 1" xmlns="http://www.w3.org/2000/svg" viewBox="0 0 45 27"><defs><style>.cls-1{fill:#fff;stroke:#fff;stroke-miterlimit:10;}</style></defs><path class="cls-1" d="M38,22.08h-.22c-.26.05-.3-.08-.29-.31,0-.47,0-.94,0-1.41,0-1.4,0-2.81,0-4.21a1.16,1.16,0,0,0-1.16-1.28q-4,0-8,0c-.25,0-.31,0-.31-.3,0-3.09,0-6.19,0-9.29A1.19,1.19,0,0,0,26.76,4H19.1a1.19,1.19,0,0,0-1.32,1.31V9.55c0,.5,0,.5-.49.5H9.81a2.3,2.3,0,0,0-.37,0,1.1,1.1,0,0,0-1,1c0,1.24,0,2.48,0,3.72a.4.4,0,0,0,.45.43.43.43,0,0,0,.46-.43V11.43c0-.41,0-.46.47-.46h7.53c.39,0,.46.06.46.44,0,3.47,0,6.93,0,10.4,0,.2,0,.27-.26.27H9.58c-.21,0-.27,0-.26-.27,0-1.38,0-2.76,0-4.15a4.56,4.56,0,0,0,0-.64.39.39,0,0,0-.46-.35.4.4,0,0,0-.43.36c0,.1,0,.2,0,.31,0,1.45,0,2.91,0,4.36,0,.31-.06.44-.38.38H7.88c-.26,0-.51,0-.62.29s.06.46.24.63H38.4a.46.46,0,0,0,.31-.37v-.12A.58.58,0,0,0,38,22.08Zm-11.18,0H19c-.25,0-.3-.06-.3-.3q0-8.19,0-16.39c0-.43,0-.47.47-.47h7.51c.41,0,.46,0,.46.46v8.18q0,4.09,0,8.21C27.15,22,27.09,22.09,26.83,22.08Zm9.48,0h-7.9c-.23,0-.29,0-.29-.28,0-1.86,0-3.71,0-5.57,0-.39,0-.44.44-.44h7.56c.4,0,.45.05.45.43,0,1.87,0,3.74,0,5.6C36.59,22.05,36.52,22.08,36.31,22.08Z"/></svg>