<svg width="24" height="24" viewBox="0 0 24 24" fill="none" xmlns="http://www.w3.org/2000/svg">
<g clip-path="url(#clip0_66_1288)">
<path d="M19.6798 19.3143H6.23982C5.17944 19.3143 4.31982 18.4547 4.31982 17.3943V3.95435" stroke="white" stroke-width="1.44" stroke-linecap="round" stroke-linejoin="round"/>
<path d="M10.2808 15.8162V13.5098" stroke="white" stroke-width="1.44" stroke-linecap="round" stroke-linejoin="round"/>
<path fill-rule="evenodd" clip-rule="evenodd" d="M10.7848 13.51H9.77566C9.23577 13.51 8.79785 13.0736 8.79785 12.5352V9.51312C8.79785 8.97467 9.23577 8.53906 9.77566 8.53906H10.7848C11.3253 8.53906 11.7632 8.97467 11.7632 9.51312V12.5352C11.7632 13.0736 11.3253 13.51 10.7848 13.51Z" stroke="white" stroke-width="1.44" stroke-linecap="round" stroke-linejoin="round"/>
<path d="M10.2808 8.53887V6.23242" stroke="white" stroke-width="1.44" stroke-linecap="round" stroke-linejoin="round"/>
<path d="M16.541 14.4979V12.1914" stroke="white" stroke-width="1.44" stroke-linecap="round" stroke-linejoin="round"/>
<path fill-rule="evenodd" clip-rule="evenodd" d="M17.0451 12.1916H16.036C15.4961 12.1916 15.0581 11.7554 15.0581 11.2169V7.2348C15.0581 6.69635 15.4961 6.26074 16.036 6.26074H17.0451C17.5856 6.26074 18.0235 6.69635 18.0235 7.2348V11.2169C18.0235 11.7554 17.5856 12.1916 17.0451 12.1916Z" stroke="white" stroke-width="1.44" stroke-linecap="round" stroke-linejoin="round"/>
<path d="M16.541 6.26054V3.9541" stroke="white" stroke-width="1.44" stroke-linecap="round" stroke-linejoin="round"/>
</g>
<defs>
<clipPath id="clip0_66_1288">
<rect width="24" height="24" fill="white"/>
</clipPath>
</defs>
</svg>
