<svg width="24" height="24" viewBox="0 0 24 24" fill="none" xmlns="http://www.w3.org/2000/svg">
<g clip-path="url(#clip0_66_1231)">
<path fill-rule="evenodd" clip-rule="evenodd" d="M5.01575 13.8439C4.02875 13.8749 3.21475 14.6279 3.10875 15.6099C2.96375 16.7879 2.96375 17.9779 3.10875 19.1559C3.20675 20.1429 4.02375 20.9029 5.01575 20.9279C6.08175 21.0239 7.15475 21.0239 8.22075 20.9279C9.21175 20.9029 10.0297 20.1429 10.1277 19.1559C10.2727 17.9789 10.2727 16.7879 10.1277 15.6109C10.0337 14.6219 9.21375 13.8599 8.22075 13.8399C7.15375 13.7449 6.08175 13.7459 5.01575 13.8439Z" stroke="white" stroke-width="1.5" stroke-linecap="round" stroke-linejoin="round"/>
<path d="M17.3823 14.2285V20.5405M14.2266 17.3838H20.5386" stroke="white" stroke-width="1.5" stroke-linecap="round" stroke-linejoin="round"/>
<path fill-rule="evenodd" clip-rule="evenodd" d="M5.01575 3.072C4.02775 3.103 3.21375 3.859 3.10875 4.842C2.96375 6.02 2.96375 7.21 3.10875 8.388C3.20875 9.373 4.02575 10.13 5.01575 10.154C6.08175 10.252 7.15475 10.252 8.22075 10.154C9.21075 10.13 10.0277 9.373 10.1277 8.388C10.2727 7.21 10.2727 6.02 10.1277 4.842C10.0337 3.853 9.21375 3.092 8.22075 3.072C7.15475 2.976 6.08175 2.976 5.01575 3.072Z" stroke="white" stroke-width="1.5" stroke-linecap="round" stroke-linejoin="round"/>
<path fill-rule="evenodd" clip-rule="evenodd" d="M15.7794 3.072C14.7914 3.103 13.9774 3.859 13.8724 4.842C13.7274 6.02 13.7274 7.21 13.8724 8.388C13.9724 9.373 14.7894 10.13 15.7794 10.154C16.8454 10.252 17.9184 10.252 18.9844 10.154C19.9744 10.13 20.7914 9.373 20.8904 8.388C21.0364 7.21 21.0364 6.02 20.8904 4.842C20.7974 3.854 19.9764 3.092 18.9844 3.072C17.9184 2.976 16.8454 2.976 15.7794 3.072Z" stroke="white" stroke-width="1.5" stroke-linecap="round" stroke-linejoin="round"/>
</g>
<defs>
<clipPath id="clip0_66_1231">
<rect width="24" height="24" fill="white"/>
</clipPath>
</defs>
</svg>
