<svg width="24" height="24" viewBox="0 0 24 24" fill="none" xmlns="http://www.w3.org/2000/svg">
<g clip-path="url(#clip0_66_1265)">
<path d="M8.16882 19.7643C11.3671 21.2488 15.2789 20.6762 17.9186 18.0267C21.2896 14.6442 21.2952 9.15584 17.9186 5.76684C14.5476 2.38534 9.07112 2.38534 5.70008 5.76684C3.06042 8.41637 2.48877 12.3405 3.96927 15.5496C4.15888 16.0248 4.30646 16.4062 4.30646 16.7764C4.30646 17.8111 3.31169 19.0923 3.97486 19.7578C4.63805 20.4231 5.91492 19.425 6.94051 19.4194C7.30854 19.4194 7.69618 19.5731 8.16882 19.7643Z" stroke="white" stroke-width="1.44" stroke-linecap="round" stroke-linejoin="round"/>
<path d="M11.5933 15.6038L11.5988 15.6376" stroke="white" stroke-width="1.44" stroke-linecap="round" stroke-linejoin="round"/>
<path d="M11.5937 13.446C11.5834 12.6578 12.298 12.3241 12.8295 12.0195C13.4768 11.6615 13.9158 11.0907 13.9158 10.2997C13.9158 9.12725 12.9705 8.18628 11.8095 8.18628C10.6409 8.18628 9.70312 9.12725 9.70312 10.2997" stroke="white" stroke-width="1.44" stroke-linecap="round" stroke-linejoin="round"/>
</g>
<defs>
<clipPath id="clip0_66_1265">
<rect width="24" height="24" fill="white"/>
</clipPath>
</defs>
</svg>
