<svg width="24" height="24" viewBox="0 0 24 24" fill="none" xmlns="http://www.w3.org/2000/svg">
<g clip-path="url(#clip0_66_1206)">
<path d="M8.19415 19.4263C7.9554 19.8089 7.83831 20.255 7.85811 20.7057" stroke="white" stroke-width="1.44" stroke-linecap="round" stroke-linejoin="round"/>
<path d="M4.40247 15.6345C4.01994 15.8728 3.57299 15.9875 3.12305 15.9619" stroke="white" stroke-width="1.44" stroke-linecap="round" stroke-linejoin="round"/>
<path d="M10.0698 7.2959L5.98901 7.61325L4.24268 9.35958C5.34106 10.005 6.3958 10.7223 7.3993 11.5071C9.23652 12.9381 10.8895 14.5916 12.3205 16.4288C13.1032 17.4306 13.8204 18.4819 14.4681 19.5758L16.2048 17.8386L16.5226 13.7486" stroke="white" stroke-width="1.44" stroke-linecap="round" stroke-linejoin="round"/>
<path d="M7.13735 12.0109C8.00863 10.1231 9.14352 8.36862 10.5083 6.80012C10.5083 6.80012 15.0749 1.93579 19.9307 3.88744C21.8917 8.63119 17.0267 13.3094 17.0267 13.3094C15.4548 14.6768 13.6971 15.815 11.8064 16.6899C11.197 17.0074 10.5508 17.2483 9.88268 17.4086L6.40918 13.935C6.60821 13.2781 6.85136 12.6349 7.13735 12.0109Z" stroke="white" stroke-width="1.44" stroke-linecap="round" stroke-linejoin="round"/>
<path d="M13.917 11.2365C14.6287 11.2365 15.2056 10.6596 15.2056 9.94783C15.2056 9.23613 14.6287 8.65918 13.917 8.65918C13.2053 8.65918 12.6284 9.23613 12.6284 9.94783C12.6284 10.6596 13.2053 11.2365 13.917 11.2365Z" stroke="white" stroke-width="1.44" stroke-linecap="round" stroke-linejoin="round"/>
<path d="M14.3667 4.41968L19.4093 9.46224" stroke="white" stroke-width="1.44" stroke-linecap="round" stroke-linejoin="round"/>
<path d="M6.14818 17.6892L5.13965 18.6884" stroke="white" stroke-width="1.44" stroke-linecap="round" stroke-linejoin="round"/>
</g>
<defs>
<clipPath id="clip0_66_1206">
<rect width="24" height="24" fill="white"/>
</clipPath>
</defs>
</svg>
