<svg width="40" height="40" viewBox="0 0 40 40" fill="none" xmlns="http://www.w3.org/2000/svg">
<circle cx="20" cy="20" r="20" fill="#1A1A1A"/>
<path d="M29 20.0625C29 15.0916 24.9709 11.0625 20 11.0625C15.0291 11.0625 11 15.0916 11 20.0625C11 25.0334 15.0291 29.0625 20 29.0625C24.9709 29.0625 29 25.0334 29 20.0625Z" stroke="#FECA18" stroke-width="1.5" stroke-linecap="round" stroke-linejoin="round"/>
<path d="M22.0571 18.4462V18.3722C22.0571 17.6639 21.483 17.0898 20.7747 17.0898H19.4923C18.6371 17.0898 17.9434 17.7826 17.9434 18.6388C17.9434 19.4941 18.6371 20.1878 19.4923 20.1878H20.5684C21.3906 20.1878 22.0581 20.8543 22.0581 21.6764C22.0581 22.4996 21.3906 23.1661 20.5684 23.1661H19.2257C18.5174 23.1661 17.9434 22.591 17.9434 21.8827" stroke="#FECA18" stroke-width="1.5" stroke-linecap="round" stroke-linejoin="round"/>
<path d="M20.0039 24.116V23.1712M20.0039 17.0869V16.0156" stroke="#FECA18" stroke-width="1.5" stroke-linecap="round" stroke-linejoin="round"/>
</svg>
