<svg width="16" height="16" viewBox="0 0 16 16" fill="none" xmlns="http://www.w3.org/2000/svg">
<g clip-path="url(#clip0_454_20427)">
<path fill-rule="evenodd" clip-rule="evenodd" d="M7.82665 1.33331C11.4067 1.33331 14.3187 4.24531 14.3187 7.82531C14.3187 9.51434 13.6705 11.0548 12.6098 12.211L14.6969 14.2938C14.8923 14.4891 14.8929 14.8051 14.6976 15.0004C14.6003 15.0991 14.4716 15.1478 14.3436 15.1478C14.2163 15.1478 14.0883 15.0991 13.9903 15.0018L11.8779 12.8953C10.7667 13.7852 9.35777 14.318 7.82665 14.318C4.24665 14.318 1.33398 11.4053 1.33398 7.82531C1.33398 4.24531 4.24665 1.33331 7.82665 1.33331ZM7.82665 2.33331C4.79798 2.33331 2.33398 4.79665 2.33398 7.82531C2.33398 10.854 4.79798 13.318 7.82665 13.318C10.8547 13.318 13.3187 10.854 13.3187 7.82531C13.3187 4.79665 10.8547 2.33331 7.82665 2.33331Z" fill="white"/>
</g>
<defs>
<clipPath id="clip0_454_20427">
<rect width="16" height="16" fill="white"/>
</clipPath>
</defs>
</svg>
