<svg xmlns="http://www.w3.org/2000/svg" fill="none" viewBox="0 0 40 40" class="icon" role="img" data-testid="CHAIN_AVALANCHE"><g clip-path="url(#chain-avalanche_svg__a)"><path fill="#E84142" d="M20 40c11.046 0 20-8.954 20-20S31.046 0 20 0 0 8.954 0 20s8.954 20 20 20"></path><path fill="#fff" fill-rule="evenodd" d="M14.397 28.437h-3.785c-.795 0-1.187 0-1.427-.153a.96.96 0 0 1-.435-.753c-.015-.282.18-.629.575-1.319l9.34-16.49c.397-.7.6-1.05.852-1.18a.96.96 0 0 1 .873 0c.253.13.455.48.852 1.18l1.92 3.357.01.017c.429.75.646 1.133.741 1.533.107.437.107.894 0 1.332-.095.404-.31.788-.746 1.55L18.26 26.2l-.013.02c-.432.758-.65 1.142-.955 1.432a2.86 2.86 0 0 1-1.162.675c-.4.111-.844.111-1.734.111zm9.554 0h5.42c.8 0 1.202 0 1.442-.157a.96.96 0 0 0 .435-.759c.014-.274-.177-.605-.553-1.256l-.04-.068-2.715-4.652-.032-.053c-.38-.646-.575-.972-.82-1.098a.95.95 0 0 0-.867 0c-.25.13-.45.47-.848 1.156l-2.706 4.652-.009.017c-.396.685-.595 1.026-.58 1.307a.97.97 0 0 0 .435.758c.235.153.638.153 1.438.153" clip-rule="evenodd"></path></g><defs><clipPath id="chain-avalanche_svg__a"><path fill="#fff" d="M0 0h40v40H0z"></path></clipPath></defs></svg>