<svg width="40" height="40" viewBox="0 0 40 40" fill="none" xmlns="http://www.w3.org/2000/svg">
<g clip-path="url(#clip0_4411_15449)">
<path d="M20 40C31.0457 40 40 31.0457 40 20C40 8.95431 31.0457 0 20 0C8.95431 0 0 8.95431 0 20C0 31.0457 8.95431 40 20 40Z" fill="#AA00CC"/>
<g filter="url(#filter0_f_4411_15449)">
<path fill-rule="evenodd" clip-rule="evenodd" d="M14.4286 13.2143H25.6429C26.0714 13.2143 26.4286 13.2857 26.8571 13.5C27.3571 13.7143 27.6429 14.0714 27.7857 14.3572C27.7857 14.3572 27.7857 14.4286 27.8571 14.4286C28.0714 14.7857 28.2143 15.2143 28.2143 15.7143C28.2143 16.1429 28.1429 16.5714 27.8571 17L20.7857 29.1429C20.6429 29.4286 20.3571 29.5714 20 29.5714C19.7143 29.5714 19.4286 29.4286 19.2143 29.1429L12.2857 17C12.1429 16.7143 11.8571 16.3572 11.8571 15.7857C11.7857 15.2857 11.9286 14.8572 12.1429 14.4286C12.3571 14 12.7143 13.6429 13.2143 13.5C13.6429 13.2143 14.1429 13.2143 14.4286 13.2143ZM19.1429 14.9286H14.4286C14.1429 14.9286 14 14.9286 13.9286 15C13.7857 15.0714 13.7143 15.1429 13.6429 15.2857C13.5714 15.3572 13.5714 15.5 13.5714 15.6429C13.5714 15.7143 13.6429 15.7857 13.7857 16.0714L19.1429 25.3572V14.9286ZM20.8571 14.9286V25.4286L26.2857 16.0714C26.3571 15.9286 26.3571 15.7857 26.3571 15.6429C26.3571 15.5 26.3571 15.3572 26.2857 15.2857C26.2143 15.2143 26.2143 15.1429 26.1429 15.1429L26.0714 15.0714C25.9286 15 25.7857 15 25.5714 15H20.8571V14.9286Z" fill="white"/>
</g>
</g>
<defs>
<filter id="filter0_f_4411_15449" x="3.83856" y="5.21429" width="32.3757" height="32.3571" filterUnits="userSpaceOnUse" color-interpolation-filters="sRGB">
<feFlood flood-opacity="0" result="BackgroundImageFix"/>
<feBlend mode="normal" in="SourceGraphic" in2="BackgroundImageFix" result="shape"/>
<feGaussianBlur stdDeviation="4" result="effect1_foregroundBlur_4411_15449"/>
</filter>
<clipPath id="clip0_4411_15449">
<rect width="40" height="40" rx="16" fill="white"/>
</clipPath>
</defs>
</svg>
