<svg width="40" height="40" viewBox="0 0 40 40" fill="none" xmlns="http://www.w3.org/2000/svg">
<g clip-path="url(#clip0_4361_15274)">
<path d="M20.4513 0.0397339H20.4831C31.2107 0.0397339 39.9105 8.73953 39.9105 19.4672V20.5487C39.9105 31.2763 31.2107 39.9761 20.4831 39.9761H20.4513C9.72367 39.9761 1.02386 31.2763 1.02386 20.5487V19.4672C1.02386 8.73953 9.72367 0.0397339 20.4513 0.0397339Z" fill="#232323"/>
<path d="M28.7773 15.0696C28.7137 15.1412 28.6342 15.1968 28.5467 15.2286C28.4592 15.2684 28.3638 15.2843 28.2684 15.2843H10.2565C9.62029 15.2843 9.29424 14.4891 9.73957 14.0119L12.6978 10.8708C12.7614 10.7992 12.841 10.7436 12.9364 10.7038C13.0239 10.664 13.1193 10.6481 13.2147 10.6481H31.2982C31.9424 10.6481 32.2604 11.4513 31.8072 11.9285L28.7773 15.0696ZM28.7773 29.1133C28.6422 29.2485 28.4592 29.3281 28.2684 29.3281H10.2565C9.62029 29.3281 9.29424 28.5487 9.73957 28.0875L12.6978 25.0179C12.7614 24.9463 12.8489 24.8907 12.9364 24.8589C13.0239 24.8191 13.1193 24.8032 13.2147 24.8032H31.2982C31.9424 24.8032 32.2604 25.5905 31.8072 26.0517L28.7773 29.1133ZM28.7773 17.9404C28.6422 17.8052 28.4592 17.7257 28.2684 17.7257H10.2565C9.62029 17.7257 9.29424 18.505 9.73957 18.9662L12.6978 22.0358C12.7614 22.1074 12.8489 22.163 12.9364 22.1949C13.0239 22.2346 13.1193 22.2505 13.2147 22.2505H31.2982C31.9424 22.2505 32.2604 21.4632 31.8072 21.002L28.7773 17.9404Z" fill="url(#paint0_linear_4361_15274)"/>
</g>
<defs>
<linearGradient id="paint0_linear_4361_15274" x1="10.9089" y1="29.5612" x2="30.5856" y2="10.4043" gradientUnits="userSpaceOnUse">
<stop stop-color="#CF41E8"/>
<stop offset="1" stop-color="#10F2B0"/>
</linearGradient>
<clipPath id="clip0_4361_15274">
<rect width="38.9662" height="40" fill="white" transform="translate(1)"/>
</clipPath>
</defs>
</svg>
