<svg width="24" height="24" viewBox="0 0 24 24" fill="none" xmlns="http://www.w3.org/2000/svg">
<g clip-path="url(#clip0_2001_598)">
<path d="M14.8322 6.98616C14.806 6.90998 14.7765 6.83789 14.7421 6.7699C14.788 6.8469 14.8175 6.91981 14.8322 6.98616Z" fill="white"/>
<path d="M11.7022 0.00011713C5.21014 0.0296078 -0.0285544 5.31499 0.00011713 11.8079C0.0296078 18.2999 5.31663 23.5386 11.8079 23.5099C18.2999 23.4804 23.5386 18.1942 23.5099 11.703C23.4804 5.21014 18.1942 -0.0285544 11.7022 0.00011713ZM10.2137 11.1779C9.05294 11.1779 8.11169 10.2375 8.11169 9.07669C8.11169 7.91673 9.05294 6.97548 10.2137 6.97548C11.3737 6.97548 12.3149 7.91673 12.3149 9.07669C12.3158 10.2375 11.3745 11.1779 10.2137 11.1779ZM11.8898 13.4503L11.9004 13.4372L11.9119 13.4241C12.5115 13.8108 13.1964 13.9476 13.8804 13.9672C14.5652 13.9853 15.2632 13.9336 15.9497 13.7952C16.6353 13.6527 17.3095 13.4421 17.9608 13.1734C18.3261 13.0227 18.6898 12.8581 19.0364 12.6647C19.0388 12.6631 19.0404 12.6623 19.0429 12.6606C19.2584 12.5312 19.4689 12.3944 19.6761 12.2535C19.7212 12.2215 19.7646 12.188 19.8072 12.1536L19.8121 12.1593L19.8301 12.1806C19.3018 12.6614 18.6726 13.0186 18.032 13.334C17.3849 13.6387 16.7099 13.8886 16.0127 14.0688C15.3181 14.2482 14.5931 14.3842 13.8591 14.317C13.1374 14.2523 12.3764 13.9992 11.8898 13.4503ZM17.2833 11.1779C17.2825 10.9256 17.4856 10.7224 17.7363 10.72C17.9886 10.7192 18.1918 10.9215 18.1942 11.173C18.195 11.4245 17.9919 11.6301 17.7412 11.6309C17.4897 11.6326 17.2849 11.4294 17.2833 11.1779ZM13.683 22.4524C13.2291 19.2715 16.007 16.1561 17.5733 14.562C17.9288 14.2007 18.4785 13.7026 18.9897 13.1734C21.0229 11.2721 21.4276 9.00051 17.2661 7.86512C16.4772 7.63656 15.6597 7.31299 14.8315 6.98613C14.8053 6.90995 14.7758 6.83786 14.7414 6.76987C14.6463 6.60603 14.48 6.41762 14.2286 6.20381C13.6879 5.73442 12.6713 5.7467 11.7939 5.95478C10.824 5.72622 9.86721 5.64512 8.94726 5.86549C4.92342 6.97384 4.27627 8.93661 4.1198 11.3016C3.90681 13.8575 3.7823 15.7621 2.81484 17.9378C1.60736 16.1962 0.895487 14.0836 0.885657 11.8038C0.858624 5.80077 5.70329 0.91269 11.7063 0.885657C17.7093 0.858624 22.5973 5.70247 22.6244 11.7055C22.649 17.067 18.7849 21.5406 13.683 22.4524Z" fill="white"/>
<path d="M11.6915 9.09634C11.6915 9.91307 11.0296 10.5742 10.2137 10.5742C9.39701 10.5742 8.73511 9.91307 8.73511 9.09634C8.73511 8.27961 9.39701 7.61853 10.2137 7.61853C11.0296 7.61771 11.6915 8.27961 11.6915 9.09634Z" fill="white"/>
</g>
<defs>
<clipPath id="clip0_2001_598">
<rect width="24" height="24" fill="white"/>
</clipPath>
</defs>
</svg>
