<svg width="48" height="49" viewBox="0 0 48 49" fill="none" xmlns="http://www.w3.org/2000/svg">
<path d="M0.5 24.6689C0.5 11.6902 11.0213 1.16888 24 1.16888C36.9787 1.16888 47.5 11.6902 47.5 24.6689C47.5 37.6476 36.9787 48.1689 24 48.1689C11.0213 48.1689 0.5 37.6476 0.5 24.6689Z" stroke="black"/>
<path fill-rule="evenodd" clip-rule="evenodd" d="M22.533 29.2577L20.3211 31.3131C20.0504 31.5655 19.6098 31.3582 19.6347 30.9886C19.7038 29.9441 19.8114 28.3572 19.8834 27.475C19.8949 27.3358 20.012 27.1803 20.1234 27.0795C22.7067 24.7371 25.2959 22.4004 27.884 20.0619C27.98 19.9755 28.0933 19.7623 28.0338 19.65C27.9666 19.5233 27.6565 19.5617 27.5279 19.6423C24.2408 21.7121 20.9538 23.7809 17.6715 25.8574C17.4699 25.9841 17.2232 26.0148 16.9966 25.9419C15.643 25.507 14.2818 25.0951 12.9253 24.667C12.6133 24.5681 12.2427 24.4702 12.2072 24.0833C12.1698 23.6791 12.5163 23.4871 12.8293 23.3614C14.0907 22.8526 15.3608 22.3659 16.629 21.8763C21.1909 20.1185 25.7528 18.3617 30.3147 16.6049C30.4674 16.5463 30.6709 16.5099 30.8303 16.4782C31.3083 16.3822 31.7384 16.6222 31.7855 17.106C31.821 17.4603 31.7586 17.8548 31.6847 18.2052C30.7343 22.7259 29.7714 27.2446 28.8095 31.7643C28.5503 32.9854 27.9224 33.2167 26.9115 32.4708C25.6088 31.5089 22.533 29.2577 22.533 29.2577Z" fill="black"/>
</svg>
